<svg xmlns="http://www.w3.org/2000/svg" viewBox="0 0 512 512">
  <!-- KavachOS - Golden Armor on Dark. Inspired by Karna's Kavach-Kundal. -->
  <defs>
    <linearGradient id="g1" x1="0" y1="0" x2="1" y2="1">
      <stop offset="0%" stop-color="#C9A84C"/>
      <stop offset="100%" stop-color="#8B6914"/>
    </linearGradient>
    <linearGradient id="g2" x1="0" y1="0" x2="1" y2="1">
      <stop offset="0%" stop-color="#D4B65A"/>
      <stop offset="100%" stop-color="#9A7B22"/>
    </linearGradient>
    <linearGradient id="g3" x1="0" y1="0" x2="1" y2="1">
      <stop offset="0%" stop-color="#E0C56A"/>
      <stop offset="100%" stop-color="#AA8B32"/>
    </linearGradient>
    <linearGradient id="g4" x1="0" y1="0" x2="1" y2="1">
      <stop offset="0%" stop-color="#F0D87A"/>
      <stop offset="100%" stop-color="#BFA042"/>
    </linearGradient>
  </defs>
  <rect width="512" height="512" fill="#0a0a0a"/>
  <g transform="translate(256,256)">
    <rect x="-180" y="-180" width="360" height="360" rx="48" fill="url(#g1)"/>
    <rect x="-156" y="-156" width="312" height="312" rx="40" fill="#0a0a0a"/>
    <rect x="-132" y="-132" width="264" height="264" rx="36" fill="url(#g2)"/>
    <rect x="-108" y="-108" width="216" height="216" rx="28" fill="#0a0a0a"/>
    <rect x="-84" y="-84" width="168" height="168" rx="24" fill="url(#g3)"/>
    <rect x="-60" y="-60" width="120" height="120" rx="16" fill="#0a0a0a"/>
    <rect x="-40" y="-40" width="80" height="80" rx="12" fill="url(#g4)"/>
    <rect x="-22" y="-22" width="44" height="44" rx="6" fill="#0a0a0a"/>
    <circle cx="0" cy="0" r="10" fill="#F6D97A"/>
  </g>
</svg>
